# xmcd CD database file
#
# Track frame offsets:
#	150
#	17915
#	36332
#	49067
#	59815
#	73915
#	87322
#	100412
#	113107
#	127550
#
# Disc length: 1908 seconds
#
# Revision: 0
# Processed by: cddbd v1.4PL0 Copyright (c) Steve Scherf et al.
# Submitted via: Feurio! 1.65 - http://www.feurio.com
#
DISCID=8c07720a
DTITLE=Ronnie McDowell - Greatest Hits
DYEAR=1994
DGENRE=Country
TTITLE0=What's It Gonna Take
TTITLE1=(Change of Heart) Change to Me
TTITLE2=Older Women
TTITLE3=It's Only Make Believe
TTITLE4=You're Gonna Ruin My Bad Reputation
TTITLE5=All Tied Up
TTITLE6=Wandering Eyes
TTITLE7=In a New York Minute
TTITLE8=Bedroom Eyes
TTITLE9=Unchained Melody
EXTD=Curb Records-1994
EXTT0=
EXTT1=
EXTT2=
EXTT3=
EXTT4=
EXTT5=
EXTT6=
EXTT7=
EXTT8=
EXTT9=
PLAYORDER=
